<svg width="62" height="56" viewBox="0 0 62 56" fill="none" xmlns="http://www.w3.org/2000/svg">
<g filter="url(#filter0_d_348_12669)">
<path d="M37.2601 46.1098V33.9355C37.2601 33.3833 36.8123 32.9355 36.26 32.9355H25.4117C24.8595 32.9355 24.4117 33.3833 24.4117 33.9355V46.1098" stroke="#FF0D0D" stroke-width="2" stroke-linecap="round" stroke-linejoin="round"/>
<path d="M12.8483 24.1528V42.1099C12.8483 43.9955 12.8483 44.9383 13.4341 45.5241C14.0198 46.1099 14.9626 46.1099 16.8483 46.1099H44.8235C46.7091 46.1099 47.652 46.1099 48.2377 45.5241C48.8235 44.9383 48.8235 43.9955 48.8235 42.1099V24.1528" stroke="#FF0D0D" stroke-width="2"/>
<path d="M12.4275 8.0253C12.6301 7.33271 12.7314 6.98641 12.998 6.78666C13.2646 6.58691 13.6254 6.58691 14.347 6.58691H47.3249C48.0465 6.58691 48.4073 6.58691 48.6739 6.78666C48.9405 6.98641 49.0418 7.33271 49.2444 8.0253L53.2134 21.5909C53.5569 22.7649 53.7286 23.3519 53.4286 23.7522C53.1287 24.1525 52.5171 24.1525 51.2939 24.1525H46.9794C45.4026 24.1525 44.6141 24.1525 44.0602 23.6962C43.5062 23.2399 43.3553 22.466 43.0534 20.9183L42.5957 18.5718C42.5198 18.1825 42.4818 17.9878 42.3994 17.9878C42.317 17.9878 42.2791 18.1825 42.2031 18.5718L41.7454 20.9183C41.4435 22.466 41.2926 23.2399 40.7387 23.6962C40.1847 24.1525 39.3963 24.1525 37.8194 24.1525H35.4159C33.8391 24.1525 33.0506 24.1525 32.4967 23.6962C31.9427 23.2399 31.7918 22.466 31.4899 20.9183L31.0322 18.5718C30.9563 18.1825 30.9183 17.9878 30.8359 17.9878C30.7536 17.9878 30.7156 18.1825 30.6396 18.5718L30.1819 20.9183C29.8801 22.466 29.7291 23.2399 29.1752 23.6962C28.6212 24.1525 27.8328 24.1525 26.2559 24.1525H23.8525C22.2756 24.1525 21.4872 24.1525 20.9332 23.6962C20.3793 23.2399 20.2283 22.466 19.9264 20.9183L19.4688 18.5718C19.3928 18.1825 19.3548 17.9878 19.2725 17.9878C19.1901 17.9878 19.1521 18.1825 19.0762 18.5718L18.6185 20.9183C18.3166 22.466 18.1656 23.2399 17.6117 23.6962C17.0578 24.1525 16.2693 24.1525 14.6925 24.1525H10.378C9.15481 24.1525 8.54322 24.1525 8.24323 23.7522C7.94324 23.3519 8.11498 22.7649 8.45846 21.5909L12.4275 8.0253Z" stroke="#FF0D0D" stroke-width="2"/>
</g>
<defs>
<filter id="filter0_d_348_12669" x="-4" y="0" width="69.6719" height="60.6968" filterUnits="userSpaceOnUse" color-interpolation-filters="sRGB">
<feFlood flood-opacity="0" result="BackgroundImageFix"/>
<feColorMatrix in="SourceAlpha" type="matrix" values="0 0 0 0 0 0 0 0 0 0 0 0 0 0 0 0 0 0 127 0" result="hardAlpha"/>
<feOffset dy="4"/>
<feGaussianBlur stdDeviation="2"/>
<feComposite in2="hardAlpha" operator="out"/>
<feColorMatrix type="matrix" values="0 0 0 0 0 0 0 0 0 0 0 0 0 0 0 0 0 0 0.3 0"/>
<feBlend mode="normal" in2="BackgroundImageFix" result="effect1_dropShadow_348_12669"/>
<feBlend mode="normal" in="SourceGraphic" in2="effect1_dropShadow_348_12669" result="shape"/>
</filter>
</defs>
</svg>
