<svg width="53" height="54" viewBox="0 0 53 54" fill="none" xmlns="http://www.w3.org/2000/svg">
<path d="M12.9451 6.99567C11.4732 7.40102 10.131 8.19744 9.05351 9.30489C7.97598 10.4123 7.20107 11.7918 6.80667 13.3046" stroke="#10C6EE" stroke-width="2" stroke-linecap="round"/>
<path d="M39.1416 6.99567C40.6136 7.40102 41.9558 8.19744 43.0333 9.30489C44.1108 10.4123 44.8857 11.7918 45.2801 13.3046" stroke="#10C6EE" stroke-width="2" stroke-linecap="round"/>
<path fill-rule="evenodd" clip-rule="evenodd" d="M26.0434 44.6108C35.6323 44.6108 43.4057 36.6216 43.4057 26.7665C43.4057 16.9113 35.6323 8.92212 26.0434 8.92212C16.4545 8.92212 8.68115 16.9113 8.68115 26.7665C8.68115 36.6216 16.4545 44.6108 26.0434 44.6108ZM27.0434 17.8443C27.0434 17.292 26.5957 16.8443 26.0434 16.8443C25.4911 16.8443 25.0434 17.292 25.0434 17.8443V26.5165C25.0434 27.2068 25.603 27.7665 26.2934 27.7665H32.5542C33.1065 27.7665 33.5542 27.3187 33.5542 26.7665C33.5542 26.2142 33.1065 25.7665 32.5542 25.7665H27.0434V17.8443Z" fill="#10C6EE"/>
</svg>
