<svg width="20" height="16" viewBox="0 0 20 16" fill="none" xmlns="http://www.w3.org/2000/svg">
<path d="M0.5 1.87793H18.5V1.87793C17.5681 1.87793 17.1022 1.87793 16.7346 2.03017C16.2446 2.23316 15.8552 2.62251 15.6522 3.11256C15.5 3.4801 15.5 3.94605 15.5 4.87793V10.8779C15.5 12.7635 15.5 13.7064 14.9142 14.2921C14.3284 14.8779 13.3856 14.8779 11.5 14.8779H7.5C5.61438 14.8779 4.67157 14.8779 4.08579 14.2921C3.5 13.7064 3.5 12.7635 3.5 10.8779V4.87793C3.5 3.94605 3.5 3.4801 3.34776 3.11256C3.14477 2.62251 2.75542 2.23316 2.26537 2.03017C1.89782 1.87793 1.43188 1.87793 0.5 1.87793V1.87793Z" stroke="#33363F" stroke-width="2" stroke-linecap="round"/>
</svg>
