<svg width="45" height="42" viewBox="0 0 45 42" fill="none" xmlns="http://www.w3.org/2000/svg">
<path fill-rule="evenodd" clip-rule="evenodd" d="M22.1345 12.7956V12.7956L22.1646 13.0886C22.3296 14.6949 22.4121 15.4981 22.9587 15.7279C23.5054 15.9577 24.137 15.4547 25.4001 14.4486L25.7369 14.1804C26.3933 13.6576 26.7215 13.3962 27.0988 13.4149C27.476 13.4337 27.7767 13.7264 28.378 14.3117L29.7783 15.6749C30.4101 16.2899 30.726 16.5974 30.7456 16.9899C30.7652 17.3824 30.4816 17.7199 29.9143 18.3948L29.8108 18.518C28.7367 19.7958 28.1997 20.4348 28.4278 20.9938C28.6559 21.5528 29.4866 21.6337 31.148 21.7954L31.4438 21.8242C32.302 21.9077 32.7311 21.9495 32.9906 22.2354C33.25 22.5213 33.25 22.9525 33.25 23.8148V25.6852C33.25 26.5475 33.25 26.9787 32.9906 27.2646C32.7311 27.5505 32.302 27.5923 31.4438 27.6758L31.1488 27.7045C29.4874 27.8663 28.6567 27.9471 28.4286 28.5062C28.2005 29.0652 28.7375 29.7041 29.8116 30.982L29.9143 31.1042C30.4816 31.7791 30.7652 32.1166 30.7456 32.5091C30.726 32.9016 30.4101 33.2091 29.7783 33.8241L28.378 35.1873L28.378 35.1873C27.7767 35.7727 27.476 36.0653 27.0988 36.0841C26.7216 36.1028 26.3933 35.8414 25.7369 35.3186L25.4002 35.0504C24.1371 34.0444 23.5055 33.5414 22.9588 33.7712C22.4122 34.001 22.3297 34.8041 22.1647 36.4105L22.1345 36.7044V36.7044C22.0468 37.5579 22.0029 37.9847 21.7175 38.2424C21.432 38.5 21.003 38.5 20.1449 38.5H18.1051C17.247 38.5 16.818 38.5 16.5325 38.2424C16.2471 37.9847 16.2032 37.5579 16.1155 36.7044L16.0854 36.4111C15.9204 34.8047 15.8379 34.0015 15.2912 33.7717C14.7446 33.542 14.113 34.045 12.8499 35.051L12.5131 35.3192C11.8566 35.8421 11.5284 36.1035 11.1512 36.0847C10.774 36.066 10.4733 35.7733 9.872 35.1879L8.47167 33.8248C7.83989 33.2098 7.524 32.9023 7.50438 32.5097C7.48476 32.1172 7.7684 31.7798 8.33569 31.1048L8.43892 30.982C9.51296 29.7041 10.05 29.0652 9.82189 28.5062C9.5938 27.9472 8.76309 27.8663 7.10166 27.7046L6.80622 27.6758C5.94798 27.5923 5.51886 27.5505 5.25943 27.2646C5 26.9787 5 26.5475 5 25.6852V23.8148C5 22.9525 5 22.5213 5.25943 22.2354C5.51886 21.9495 5.94798 21.9077 6.80623 21.8242L7.10245 21.7953C8.76387 21.6336 9.59459 21.5527 9.82268 20.9937C10.0508 20.4347 9.51375 19.7958 8.43971 18.5179L8.33571 18.3942C7.76842 17.7192 7.48477 17.3818 7.5044 16.9893C7.52402 16.5968 7.83991 16.2893 8.47169 15.6742L9.87202 14.3111C10.4733 13.7257 10.774 13.4331 11.1512 13.4143C11.5285 13.3955 11.8567 13.6569 12.5131 14.1798L12.85 14.4481C14.1131 15.4541 14.7447 15.9571 15.2913 15.7273C15.838 15.4975 15.9205 14.6944 16.0855 13.088L16.1155 12.7956C16.2032 11.9421 16.2471 11.5153 16.5325 11.2576C16.818 11 17.247 11 18.1051 11H20.1449C21.003 11 21.432 11 21.7175 11.2576C22.0029 11.5153 22.0468 11.9421 22.1345 12.7956ZM19.125 30.25C22.2454 30.25 24.775 27.7876 24.775 24.75C24.775 21.7124 22.2454 19.25 19.125 19.25C16.0046 19.25 13.475 21.7124 13.475 24.75C13.475 27.7876 16.0046 30.25 19.125 30.25Z" fill="#2FA4D7"/>
</svg>
