<svg width="31" height="32" viewBox="0 0 31 32" fill="none" xmlns="http://www.w3.org/2000/svg">
<path d="M20.0208 20.6663C20.0208 21.02 20.1569 21.3591 20.3992 21.6092C20.6414 21.8592 20.9699 21.9997 21.3125 21.9997C21.6551 21.9997 21.9836 21.8592 22.2258 21.6092C22.4681 21.3591 22.6042 21.02 22.6042 20.6663C22.6042 20.3127 22.4681 19.9736 22.2258 19.7235C21.9836 19.4735 21.6551 19.333 21.3125 19.333C20.9699 19.333 20.6414 19.4735 20.3992 19.7235C20.1569 19.9736 20.0208 20.3127 20.0208 20.6663Z" stroke="black" stroke-width="2" stroke-linecap="round" stroke-linejoin="round"/>
<path d="M9.04167 9.33317C9.04167 8.62593 9.31384 7.94765 9.79831 7.44755C10.2828 6.94746 10.9399 6.6665 11.625 6.6665C12.3101 6.6665 12.9672 6.94746 13.4517 7.44755C13.9362 7.94765 14.2083 8.62593 14.2083 9.33317V21.3332C14.2083 22.394 14.6166 23.4115 15.3433 24.1616C16.07 24.9117 17.0556 25.3332 18.0833 25.3332C19.111 25.3332 20.0967 24.9117 20.8234 24.1616C21.5501 23.4115 21.9583 22.394 21.9583 21.3332V20.6665M10.3333 14.6665H18.0833" stroke="black" stroke-width="2" stroke-linecap="round" stroke-linejoin="round"/>
</svg>
