<svg width="49" height="50" viewBox="0 0 49 50" fill="none" xmlns="http://www.w3.org/2000/svg">
<g filter="url(#filter0_d_282_3183)">
<path d="M29.2179 40.25V29.75C29.2179 29.1977 28.7702 28.75 28.2179 28.75H20.1428C19.5905 28.75 19.1428 29.1977 19.1428 29.75V40.25" stroke="#FF0D0D" stroke-width="2" stroke-linecap="round" stroke-linejoin="round"/>
<path d="M10.0752 21.0835V36.2502C10.0752 38.1358 10.0752 39.0786 10.661 39.6644C11.2468 40.2502 12.1896 40.2502 14.0752 40.2502H34.2855C36.1712 40.2502 37.114 40.2502 37.6998 39.6644C38.2855 39.0786 38.2855 38.1358 38.2855 36.2502V21.0835" stroke="#FF0D0D" stroke-width="2"/>
<path d="M9.68318 7.24161C9.87161 6.52468 9.96582 6.16621 10.2357 5.9581C10.5056 5.75 10.8762 5.75 11.6175 5.75H36.7433C37.4846 5.75 37.8552 5.75 38.1251 5.9581C38.395 6.16621 38.4892 6.52468 38.6776 7.24161L41.6563 18.5749C41.9594 19.7281 42.111 20.3046 41.8107 20.694C41.5105 21.0833 40.9143 21.0833 39.722 21.0833H37.6156C36.0099 21.0833 35.207 21.0833 34.6491 20.6147C34.0913 20.1461 33.9527 19.3553 33.6756 17.7737L33.445 16.4576C33.3697 16.0277 33.332 15.8127 33.248 15.8127C33.164 15.8127 33.1263 16.0277 33.051 16.4576L32.8204 17.7737C32.5433 19.3553 32.4047 20.1461 31.8469 20.6147C31.289 21.0833 30.4861 21.0833 28.8804 21.0833H28.548C26.9422 21.0833 26.1394 21.0833 25.5815 20.6147C25.0237 20.1461 24.8851 19.3553 24.608 17.7737L24.3774 16.4576C24.3021 16.0277 24.2644 15.8127 24.1804 15.8127C24.0964 15.8127 24.0587 16.0277 23.9834 16.4576L23.7528 17.7737C23.4757 19.3553 23.3371 20.1461 22.7792 20.6147C22.2214 21.0833 21.4185 21.0833 19.8128 21.0833H19.4804C17.8746 21.0833 17.0718 21.0833 16.5139 20.6147C15.9561 20.1461 15.8175 19.3553 15.5404 17.7737L15.3098 16.4576C15.2344 16.0277 15.1968 15.8127 15.1128 15.8127C15.0288 15.8127 14.9911 16.0277 14.9158 16.4576L14.6852 17.7737C14.408 19.3553 14.2695 20.1461 13.7116 20.6147C13.1538 21.0833 12.3509 21.0833 10.7452 21.0833H8.63875C7.44645 21.0833 6.8503 21.0833 6.55006 20.694C6.24983 20.3046 6.40137 19.7281 6.70445 18.5749L9.68318 7.24161Z" stroke="#FF0D0D" stroke-width="2"/>
</g>
<defs>
<filter id="filter0_d_282_3183" x="-4" y="0" width="56.3606" height="54" filterUnits="userSpaceOnUse" color-interpolation-filters="sRGB">
<feFlood flood-opacity="0" result="BackgroundImageFix"/>
<feColorMatrix in="SourceAlpha" type="matrix" values="0 0 0 0 0 0 0 0 0 0 0 0 0 0 0 0 0 0 127 0" result="hardAlpha"/>
<feOffset dy="4"/>
<feGaussianBlur stdDeviation="2"/>
<feComposite in2="hardAlpha" operator="out"/>
<feColorMatrix type="matrix" values="0 0 0 0 0 0 0 0 0 0 0 0 0 0 0 0 0 0 0.3 0"/>
<feBlend mode="normal" in2="BackgroundImageFix" result="effect1_dropShadow_282_3183"/>
<feBlend mode="normal" in="SourceGraphic" in2="effect1_dropShadow_282_3183" result="shape"/>
</filter>
</defs>
</svg>
