<svg width="34" height="41" viewBox="0 0 34 41" fill="none" xmlns="http://www.w3.org/2000/svg">
<rect x="4.25" y="10.25" width="25.5" height="25.625" rx="2" stroke="#2FA4D7" stroke-width="2"/>
<path d="M4.25 14.25C4.25 12.3644 4.25 11.4216 4.83579 10.8358C5.42157 10.25 6.36438 10.25 8.25 10.25H25.75C27.6356 10.25 28.5784 10.25 29.1642 10.8358C29.75 11.4216 29.75 12.3644 29.75 14.25V17.0833H4.25V14.25Z" fill="#2FA4D7"/>
<path d="M9.91666 5.125L9.91666 10.25" stroke="#2FA4D7" stroke-width="2" stroke-linecap="round"/>
<path d="M24.0833 5.125L24.0833 10.25" stroke="#2FA4D7" stroke-width="2" stroke-linecap="round"/>
<rect x="9.91666" y="20.5" width="5.66667" height="3.41667" rx="0.5" fill="#2FA4D7"/>
<rect x="9.91666" y="27.3333" width="5.66667" height="3.41667" rx="0.5" fill="#2FA4D7"/>
<rect x="18.4167" y="20.5" width="5.66667" height="3.41667" rx="0.5" fill="#2FA4D7"/>
<rect x="18.4167" y="27.3333" width="5.66667" height="3.41667" rx="0.5" fill="#2FA4D7"/>
</svg>
