<svg width="32" height="33" viewBox="0 0 32 33" fill="none" xmlns="http://www.w3.org/2000/svg">
<path d="M20.5208 21.5443C20.5208 21.8979 20.6569 22.237 20.8992 22.4871C21.1414 22.7371 21.4699 22.8776 21.8125 22.8776C22.1551 22.8776 22.4836 22.7371 22.7258 22.4871C22.9681 22.237 23.1042 21.8979 23.1042 21.5443C23.1042 21.1906 22.9681 20.8515 22.7258 20.6015C22.4836 20.3514 22.1551 20.2109 21.8125 20.2109C21.4699 20.2109 21.1414 20.3514 20.8992 20.6015C20.6569 20.8515 20.5208 21.1906 20.5208 21.5443Z" stroke="black" stroke-width="2" stroke-linecap="round" stroke-linejoin="round"/>
<path d="M9.54167 10.2111C9.54167 9.50386 9.81384 8.82558 10.2983 8.32548C10.7828 7.82539 11.4399 7.54443 12.125 7.54443C12.8101 7.54443 13.4672 7.82539 13.9517 8.32548C14.4362 8.82558 14.7083 9.50386 14.7083 10.2111V22.2111C14.7083 23.272 15.1166 24.2894 15.8433 25.0395C16.57 25.7897 17.5556 26.2111 18.5833 26.2111C19.611 26.2111 20.5967 25.7897 21.3234 25.0395C22.0501 24.2894 22.4583 23.272 22.4583 22.2111V21.5444M10.8333 15.5444H18.5833" stroke="black" stroke-width="2" stroke-linecap="round" stroke-linejoin="round"/>
</svg>
