<svg width="38" height="38" viewBox="0 0 38 38" fill="none" xmlns="http://www.w3.org/2000/svg">
<path fill-rule="evenodd" clip-rule="evenodd" d="M3.13306 11.1665C3.13306 7.39527 3.13306 5.50965 4.30463 4.33808C5.4762 3.1665 7.36182 3.1665 11.1331 3.1665H26.4631C30.2343 3.1665 32.1199 3.1665 33.2915 4.33808C34.463 5.50965 34.463 7.39527 34.463 11.1665V26.8332C34.463 30.6044 34.463 32.49 33.2915 33.6616C32.1199 34.8332 30.2343 34.8332 26.463 34.8332H11.1331C7.36182 34.8332 5.4762 34.8332 4.30463 33.6616C3.13306 32.49 3.13306 30.6044 3.13306 26.8332V11.1665ZM12.4635 26.5061C14.2795 25.0976 16.5061 24.3332 18.7981 24.3332C21.09 24.3332 23.3166 25.0976 25.1327 26.5061C26.9485 27.9145 28.2521 29.8876 28.8434 32.1181C28.9849 32.652 28.6669 33.1995 28.133 33.341C27.5992 33.4825 27.0517 33.1645 26.9102 32.6306C26.4305 30.8212 25.374 29.2243 23.9069 28.0865C22.4401 26.9488 20.6442 26.3332 18.7981 26.3332C16.9519 26.3332 15.1561 26.9488 13.6892 28.0865C12.2221 29.2243 11.1656 30.8212 10.6859 32.6306C10.5444 33.1645 9.99691 33.4825 9.46307 33.341C8.92923 33.1995 8.61119 32.652 8.75271 32.1181C9.34404 29.8875 10.6476 27.9145 12.4635 26.5061ZM15.0986 14.2498C15.0986 12.1687 16.7649 10.4998 18.7981 10.4998C20.8312 10.4998 22.4976 12.1687 22.4976 14.2498C22.4976 16.331 20.8312 17.9998 18.7981 17.9998C16.7649 17.9998 15.0986 16.331 15.0986 14.2498ZM18.7981 8.49984C15.6403 8.49984 13.0986 11.0843 13.0986 14.2498C13.0986 17.4154 15.6403 19.9998 18.7981 19.9998C21.9558 19.9998 24.4976 17.4154 24.4976 14.2498C24.4976 11.0843 21.9558 8.49984 18.7981 8.49984Z" fill="#03BEE7"/>
<rect x="3.63306" y="3.6665" width="30.33" height="30.6667" rx="3.5" stroke="#03BEE7"/>
</svg>
